<!DOCTYPE svg PUBLIC "-//W3C//DTD SVG 20010904//EN" "http://www.w3.org/TR/2001/REC-SVG-20010904/DTD/svg10.dtd">
<svg version="1.0" xmlns="http://www.w3.org/2000/svg" width="729px" height="727px" viewBox="0 0 7290 7270" preserveAspectRatio="xMidYMid meet">
<g id="layer101" fill="#000000" stroke="none">
 <path d="M1560 3300 l0 -2040 2215 0 2215 0 0 2040 0 2040 -2215 0 -2215 0 0 -2040z m4380 0 l0 -1990 -2165 0 -2165 0 0 1990 0 1990 2165 0 2165 0 0 -1990z"/>
 <path d="M2662 5000 c-30 -12 -38 -38 -19 -57 14 -14 17 -14 38 1 13 9 34 16 47 16 33 0 72 -43 72 -80 0 -27 -2 -30 -19 -20 -29 15 -89 12 -121 -6 -83 -50 -78 -174 10 -219 37 -19 90 -19 117 0 19 13 22 13 27 0 7 -20 32 -19 40 1 10 27 7 237 -5 278 -6 22 -24 52 -39 68 -24 23 -37 28 -77 27 -26 0 -58 -4 -71 -9z m112 -201 c34 -27 35 -71 1 -104 -27 -28 -42 -30 -79 -14 -33 15 -50 57 -37 91 19 50 71 62 115 27z"/>
 <path d="M1797 4863 c-2 -4 37 -106 87 -226 61 -146 95 -216 105 -215 13 3 191 408 191 435 0 7 -11 13 -24 13 -20 0 -28 -12 -57 -82 l-34 -83 -75 -3 -75 -3 -35 83 c-27 64 -40 84 -57 86 -11 2 -23 0 -26 -5z m233 -232 c0 -21 -44 -105 -48 -91 -2 8 -13 34 -23 58 l-18 42 45 0 c24 0 44 -4 44 -9z"/>
 <path d="M2200 4640 l0 -230 25 0 25 0 0 115 0 115 26 -10 c89 -34 174 24 174 119 0 49 -22 86 -61 107 -32 16 -92 19 -119 4 -13 -7 -21 -7 -25 0 -3 5 -15 10 -26 10 -18 0 -19 -9 -19 -230z m175 155 c32 -31 32 -69 -1 -102 -20 -20 -31 -24 -57 -19 -40 8 -55 23 -63 63 -5 26 -1 37 19 57 33 33 71 33 102 1z"/>
 <path d="M2505 4858 c-3 -8 -4 -63 -3 -124 3 -104 4 -109 25 -112 30 -4 35 18 31 143 -3 95 -4 100 -26 103 -12 2 -24 -3 -27 -10z"/>
 <path d="M2949 4853 c-83 -51 -76 -173 11 -218 37 -19 90 -19 117 0 19 13 22 13 27 0 7 -20 32 -19 40 1 3 9 6 63 6 120 0 88 -3 106 -16 111 -9 3 -24 1 -34 -5 -10 -6 -22 -7 -31 -1 -23 14 -92 10 -120 -8z m115 -54 c34 -27 35 -71 1 -104 -27 -28 -42 -30 -79 -14 -33 15 -50 57 -37 91 19 50 71 62 115 27z"/>
 <path d="M3195 4858 c-3 -8 -4 -63 -3 -124 3 -104 4 -109 25 -112 30 -4 35 18 31 143 -3 95 -4 100 -26 103 -12 2 -24 -3 -27 -10z"/>
 <path d="M3307 4864 c-4 -4 -7 -108 -7 -231 l0 -224 28 3 27 3 0 225 c0 219 -1 225 -20 228 -12 2 -24 0 -28 -4z"/>
 <path d="M3715 4853 c-169 -89 -170 -320 -1 -399 69 -32 155 -29 203 9 19 14 -3 51 -25 42 -128 -53 -252 23 -252 152 1 82 81 162 162 163 59 0 68 -7 68 -55 0 -43 0 -44 -37 -47 -31 -2 -39 -7 -41 -25 -3 -22 0 -23 55 -23 33 0 64 5 71 12 7 7 12 42 12 85 l0 73 -36 15 c-47 19 -141 19 -179 -2z"/>
 <path d="M4016 4849 c-56 -44 -70 -110 -36 -166 53 -88 180 -81 224 12 25 51 14 100 -31 142 -29 28 -42 33 -82 33 -34 0 -56 -6 -75 -21z m121 -51 c33 -30 31 -80 -3 -107 -34 -27 -57 -26 -88 2 -37 33 -39 75 -4 107 28 26 66 26 95 -2z"/>
 <path d="M4280 4750 c0 -103 2 -122 16 -127 10 -4 22 0 28 9 10 14 14 14 31 2 28 -21 87 -18 113 6 26 25 34 65 30 155 -3 67 -4 70 -28 70 -24 0 -25 -2 -30 -89 -6 -99 -16 -115 -63 -97 -35 14 -47 46 -47 127 0 62 -1 64 -25 64 l-25 0 0 -120z"/>
 <path d="M4527 4863 c-17 -16 -2 -40 65 -109 l71 -74 -36 0 c-67 0 -105 -27 -91 -65 7 -17 35 -20 50 -5 5 5 43 10 84 12 103 4 105 20 10 121 l-72 77 76 0 c74 0 76 1 76 25 l0 25 -113 0 c-63 0 -117 -3 -120 -7z"/>
 <path d="M4859 4853 c-83 -51 -76 -173 11 -218 37 -19 90 -19 117 0 19 13 22 13 27 0 7 -20 32 -19 40 1 3 9 6 63 6 120 0 88 -3 106 -16 111 -9 3 -24 1 -34 -5 -10 -6 -22 -7 -31 -1 -23 14 -92 10 -120 -8z m115 -54 c34 -27 35 -71 1 -104 -27 -28 -42 -30 -79 -14 -33 15 -50 57 -37 91 19 50 71 62 115 27z"/>
 <path d="M5137 4864 c-4 -4 -7 -108 -7 -231 l0 -224 28 3 27 3 0 225 c0 219 -1 225 -20 228 -12 2 -24 0 -28 -4z"/>
 <path d="M5266 4849 c-14 -11 -33 -34 -41 -49 -43 -83 22 -180 119 -180 26 0 44 9 70 34 57 53 50 68 -50 106 -77 30 -84 35 -68 47 22 16 58 17 84 1 16 -11 23 -10 37 5 17 17 17 19 -7 37 -35 27 -109 27 -144 -1z m111 -149 c3 0 0 -7 -7 -15 -7 -8 -20 -15 -30 -15 -23 0 -70 38 -70 56 0 11 10 10 50 -6 28 -11 53 -20 57 -20z"/>
 <path d="M5487 4863 c-17 -16 -2 -40 65 -109 l71 -74 -36 0 c-67 0 -105 -27 -91 -65 7 -17 35 -20 50 -5 5 5 43 10 84 12 103 4 105 20 10 121 l-72 77 76 0 c74 0 76 1 76 25 l0 25 -113 0 c-63 0 -117 -3 -120 -7z"/>
 <path d="M2504 4576 c-10 -26 4 -48 28 -44 17 2 23 10 23 28 0 18 -6 26 -23 28 -13 2 -25 -3 -28 -12z"/>
 <path d="M3194 4576 c-10 -26 4 -48 28 -44 17 2 23 10 23 28 0 18 -6 26 -23 28 -13 2 -25 -3 -28 -12z"/>
 <path d="M4907 4584 c-3 -4 7 -26 24 -50 22 -32 37 -44 54 -44 32 0 31 7 -6 58 -28 38 -56 52 -72 36z"/>
 <path d="M4248 4343 c-14 -2 -47 -22 -72 -44 -131 -116 -82 -301 137 -521 66 -65 156 -138 571 -459 l109 -84 33 -120 c18 -66 37 -131 40 -145 5 -16 -12 -2 -53 46 -130 151 -271 261 -372 291 -124 36 -281 -6 -376 -101 -49 -50 -111 -166 -121 -228 -6 -36 -25 -50 -39 -28 -13 20 -104 52 -180 62 -44 6 -85 12 -90 13 -14 4 -181 481 -196 555 -5 30 -9 90 -7 132 2 80 -5 104 -25 78 -7 -8 -18 -15 -24 -16 -7 -1 -19 -2 -27 -2 -23 -3 -39 -96 -33 -191 3 -47 19 -138 36 -201 35 -135 76 -290 86 -319 6 -20 5 -20 -157 -14 -90 3 -168 8 -174 12 -6 3 -65 74 -131 156 -176 221 -290 351 -430 492 -154 154 -180 168 -313 168 -82 0 -103 -4 -151 -26 -75 -35 -134 -96 -172 -176 -55 -120 -47 -318 19 -460 37 -78 139 -178 226 -221 141 -69 190 -76 504 -74 l282 3 98 -138 c102 -143 236 -304 503 -602 210 -233 260 -294 261 -309 0 -23 33 -72 52 -78 27 -8 117 25 129 48 14 25 7 86 -19 163 -11 33 -50 152 -87 265 -37 113 -99 297 -139 410 -40 113 -72 207 -70 209 5 5 134 -19 196 -37 l58 -17 0 -60 c1 -324 315 -805 650 -998 25 -14 95 -43 155 -63 102 -35 118 -38 230 -38 128 -1 181 10 236 47 111 75 107 214 -12 391 -120 180 -295 281 -509 293 -101 6 -206 -8 -228 -31 -11 -11 -8 -17 18 -40 30 -25 36 -26 153 -26 129 0 193 -12 267 -50 88 -44 172 -135 221 -235 64 -133 19 -231 -106 -228 -329 8 -715 359 -882 803 -84 223 -64 424 54 535 39 36 125 75 166 75 79 0 222 -98 359 -245 59 -64 201 -238 238 -292 12 -18 28 -23 78 -28 59 -5 63 -4 74 20 8 19 8 35 -1 66 -7 22 -21 92 -32 155 -10 63 -26 130 -34 150 l-15 36 33 -24 c114 -87 219 -159 265 -182 28 -14 52 -25 53 -24 0 2 2 10 4 19 1 9 6 26 9 37 10 30 -31 72 -157 158 -249 172 -252 174 -271 245 -38 134 -130 407 -165 489 -53 121 -94 180 -205 297 -146 153 -278 232 -423 253 -37 5 -70 9 -73 8 -3 0 -17 -3 -32 -5z m142 -43 c17 -6 9 -7 -25 -3 -27 3 -52 7 -54 9 -8 7 54 2 79 -6z m-29 -130 c166 -70 350 -223 408 -337 61 -122 181 -443 159 -426 -346 263 -491 383 -572 479 -100 117 -142 220 -116 284 16 38 32 38 121 0z m197 -40 c57 -41 53 -46 -8 -8 -27 17 -50 33 -50 34 0 11 21 1 58 -26z m97 -80 c21 -22 37 -40 34 -40 -3 0 -23 18 -44 40 -21 22 -37 40 -34 40 3 0 23 -18 44 -40z m-2122 -321 c83 -54 221 -225 420 -516 53 -78 97 -144 97 -147 0 -2 -102 -2 -227 0 -283 7 -333 18 -417 95 -37 33 -67 73 -88 117 -32 64 -33 71 -33 192 0 118 2 128 29 180 61 116 128 140 219 79z m-198 -607 c43 -41 56 -58 38 -48 -62 32 -163 172 -163 226 0 8 14 -14 30 -50 21 -48 46 -82 95 -128z m5 -70 c0 -8 -38 20 -61 45 -53 59 -52 66 4 13 31 -30 57 -56 57 -58z m1345 -146 c0 0 53 -158 118 -350 64 -192 113 -345 108 -340 -4 5 -38 54 -76 109 -85 124 -211 302 -327 461 -48 67 -88 124 -88 127 0 4 264 -3 265 -7z m1544 -121 l-1 -30 -13 35 c-7 19 -13 46 -13 60 0 24 0 24 13 -5 8 -16 14 -43 14 -60z m-1734 -115 c10 -11 15 -20 12 -20 -4 0 -16 9 -27 20 -11 11 -16 20 -12 20 5 0 17 -9 27 -20z m66 -88 l32 -47 -30 30 c-16 17 -28 33 -26 38 3 4 -3 10 -11 13 -9 3 -16 10 -16 16 0 17 19 -2 51 -50z m-22 -48 c52 -63 54 -68 19 -35 -20 18 -50 54 -68 80 -31 44 -31 45 -3 15 15 -17 39 -44 52 -60z m215 -206 c19 -33 19 -33 0 -16 -10 9 -39 45 -62 80 l-43 63 43 -47 c24 -26 52 -62 62 -80z m1221 42 c12 -6 -19 -7 -80 -3 -55 3 -102 7 -104 9 -9 8 165 2 184 -6z m-401 -316 c44 -49 67 -78 52 -64 -53 47 -135 136 -166 181 l-31 44 33 -36 c18 -20 69 -76 112 -125z"/>
 </g>

</svg>